<svg width="30" height="30" viewBox="0 0 30 30" fill="none" xmlns="http://www.w3.org/2000/svg">
<path d="M2.74223 25.8422C4.15551 26.9484 6.76176 25.7649 6.76176 25.7649L9.7477 24.7313L25.3266 14.8172L27.4313 12.0984C27.4313 12.0984 29.2477 10.4649 29.2313 9.03517C29.2149 7.61485 28.4649 6.93048 27.2789 6.81564C26.093 6.70079 24.0258 7.16017 24.0258 7.16017C24.0258 7.16017 23.4235 5.21485 22.2704 4.39923C22.2399 4.37814 22.2422 4.23048 22.2118 4.21173C21.9258 4.02892 21.6493 3.9422 21.2649 3.97267C20.8782 4.00314 20.5289 4.08048 20.2336 4.18126C19.9782 4.26798 19.7579 4.53751 19.5657 4.65235C18.8485 5.07657 18.5508 5.43751 18.5508 5.43751L15.2579 4.6336L13.8821 3.53907C13.8821 3.53907 13.3289 3.33751 12.6258 3.52032C11.9954 3.68439 11.6555 3.96329 11.4914 4.09689C11.4211 4.15548 10.6664 7.31251 10.6664 7.31251L5.38364 8.03907C5.38364 8.03907 4.92426 8.23126 4.54223 8.84298C4.1602 9.4547 4.02426 10.507 4.02426 10.507L4.65707 14.2008L1.84223 15.7688C1.84223 15.7688 1.46957 16.132 1.20004 16.8586C0.932855 17.5852 0.972699 18.1711 0.989105 18.4852C1.00317 18.7266 3.12426 20.7117 3.12426 20.7117L1.82348 24.0047C1.82348 24.007 1.86098 25.1555 2.74223 25.8422Z" fill="#FFE5B2"/>
<path d="M12.9329 11.9391C8.93208 14.3578 8.49145 18.1406 8.64614 20.6273C8.80083 23.1141 9.45005 24.8766 9.45005 24.8766C9.45005 24.8766 14.1961 24.1102 18.9446 20.8195C23.693 17.5289 25.3383 14.8102 25.3383 14.8102C25.3383 14.8102 23.4141 12.457 20.6297 11.0977C17.5407 9.58828 14.5782 10.943 12.9329 11.9391ZM22.2211 4.20468C22.2211 4.20468 20.9532 8.11406 23.2618 9.12187C26.2711 10.4367 27.286 6.80859 27.286 6.80859C27.286 6.80859 25.9102 6.63749 25.1016 6.2414C23.6766 5.54296 22.2211 4.20468 22.2211 4.20468ZM13.8375 3.53437C13.8375 3.53437 13.8961 7.17421 17.011 7.61015C20.1258 8.04609 20.243 4.17421 20.243 4.17421C20.243 4.17421 19.2844 4.64062 17.6532 4.64062C16.2844 4.64062 15.7899 4.11562 15.15 3.85546C14.3227 3.51796 13.8375 3.53437 13.8375 3.53437ZM5.40239 8.01796C5.40239 8.01796 7.94302 11.2594 10.9079 9.22499C13.411 7.50703 11.4985 4.1039 11.4985 4.1039C11.4985 4.1039 9.88833 6.18046 9.04692 6.63515C7.45083 7.49531 5.40239 8.01796 5.40239 8.01796ZM4.05708 10.3172C4.05708 10.3172 7.72739 12.6562 6.38911 15.0164C5.05083 17.3742 1.84458 15.7617 1.84458 15.7617C1.84458 15.7617 3.59067 14.5687 3.93989 13.725C4.28911 12.8812 3.76645 11.3648 4.05708 10.3172ZM4.65005 20.6555C4.74614 22.1437 2.49145 23.5945 1.83755 24C1.69224 23.0648 2.16333 22.05 2.04614 21.0609C1.92661 20.0625 0.923485 19.3031 1.00083 18.4781C1.87739 18.5203 4.52349 18.7055 4.65005 20.6555Z" fill="#FACE90"/>
<path d="M14.3157 9.75233C14.4469 10.1156 14.9321 10.0805 15.5578 9.92342C16.1578 9.77342 16.5 9.6867 16.5 9.32342C16.5 8.84998 15.7922 8.74451 15.3446 8.85233C14.8946 8.96014 14.1446 9.28123 14.3157 9.75233ZM13.4391 10.2234C13.568 10.8023 11.2125 11.6039 9.75472 13.5633C7.46253 16.6476 8.02035 18.9164 7.39925 19.0453C6.81097 19.1672 6.64222 16.7484 7.43441 14.9297C8.2266 13.1109 9.59769 11.639 10.6336 10.9078C11.8735 10.0312 13.3102 9.6492 13.4391 10.2234Z" fill="white"/>
</svg>
